<?xml version="1.0" encoding="UTF-8" standalone="no"?>
<svg width="90px" height="17px" viewBox="0 0 90 17" version="1.1" xmlns="http://www.w3.org/2000/svg" xmlns:xlink="http://www.w3.org/1999/xlink">
    <!-- Generator: Sketch 41.2 (35397) - http://www.bohemiancoding.com/sketch -->
    <title>logo white</title>
    <desc>Created with Sketch.</desc>
    <defs>
        <radialGradient cx="110.358273%" cy="-11.2119134%" fx="110.358273%" fy="-11.2119134%" r="148.144964%" id="radialGradient-1">
            <stop stop-color="#F5833F" offset="1.796875%"></stop>
            <stop stop-color="#E92C82" offset="100%"></stop>
        </radialGradient>
        <radialGradient cx="358.305263%" cy="-562.2%" fx="358.305263%" fy="-562.2%" r="754.373684%" id="radialGradient-2">
            <stop stop-color="#F5833F" offset="1.796875%"></stop>
            <stop stop-color="#E92C82" offset="100%"></stop>
        </radialGradient>
        <radialGradient cx="353.851724%" cy="-666.25%" fx="353.851724%" fy="-666.25%" r="741.367241%" id="radialGradient-3">
            <stop stop-color="#F5833F" offset="1.796875%"></stop>
            <stop stop-color="#E92C82" offset="100%"></stop>
        </radialGradient>
    </defs>
    <g id="Welcome" stroke="none" stroke-width="1" fill="none" fill-rule="evenodd">
        <g id="Fordex-Web-UI" transform="translate(-88.000000, -2005.000000)">
            <g id="logo-white" transform="translate(88.000000, 2005.000000)">
                <g id="Layer_1">
                    <g id="Group">
                        <path d="M9.73584906,0.452830189 C9.79245283,0.509433962 9.8490566,0.566037736 9.8490566,0.679245283 L9.8490566,2.54716981 C9.8490566,2.60377358 9.79245283,2.71698113 9.73584906,2.77358491 C9.67924528,2.83018868 9.62264151,2.88679245 9.50943396,2.88679245 L3.16981132,2.88679245 C3.05660377,2.88679245 3.05660377,2.94339623 3.05660377,3 L3.05660377,7.24528302 C3.05660377,7.35849057 3.11320755,7.35849057 3.16981132,7.35849057 L8.37735849,7.35849057 C8.43396226,7.35849057 8.54716981,7.41509434 8.60377358,7.47169811 C8.66037736,7.52830189 8.71698113,7.64150943 8.71698113,7.69811321 L8.71698113,9.62264151 C8.71698113,9.67924528 8.66037736,9.79245283 8.60377358,9.8490566 C8.54716981,9.90566038 8.49056604,9.96226415 8.37735849,9.96226415 L3.16981132,9.96226415 C3.05660377,9.96226415 3.05660377,10.0188679 3.05660377,10.0754717 L3.05660377,15.9056604 C3.05660377,15.9622642 3,16.0754717 2.94339623,16.1320755 C2.88679245,16.1886792 2.83018868,16.245283 2.71698113,16.245283 L0.622641509,16.245283 C0.509433962,16.245283 0.452830189,16.1886792 0.396226415,16.1320755 C0.339622642,16.0754717 0.283018868,16.0188679 0.283018868,15.9056604 L0.283018868,0.679245283 C0.283018868,0.622641509 0.339622642,0.509433962 0.396226415,0.452830189 C0.452830189,0.396226415 0.509433962,0.339622642 0.622641509,0.339622642 L9.50943396,0.339622642 C9.56603774,0.339622642 9.67924528,0.396226415 9.73584906,0.452830189 Z" id="Shape" fill="#FFFFFF"></path>
                        <path d="M19.9811321,16.1320755 C18.9056604,16.1320755 17.8867925,15.9056604 16.9245283,15.509434 C15.9622642,15.1132075 15.1698113,14.5471698 14.4339623,13.8679245 C13.754717,13.1886792 13.1886792,12.3396226 12.7924528,11.3773585 C12.3962264,10.4150943 12.1698113,9.39622642 12.1698113,8.32075472 C12.1698113,7.24528302 12.3962264,6.22641509 12.7924528,5.26415094 C13.1886792,4.30188679 13.754717,3.45283019 14.4339623,2.77358491 C15.1132075,2.09433962 15.9622642,1.52830189 16.9245283,1.0754717 C17.8867925,0.679245283 18.9056604,0.452830189 19.9811321,0.452830189 C21.2264151,0.452830189 22.4150943,0.735849057 23.4339623,1.24528302 C23.4339623,1.24528302 23.490566,1.24528302 23.490566,1.30188679 C23.490566,1.30188679 23.490566,1.30188679 23.490566,1.35849057 C23.4339623,1.41509434 23.3773585,1.52830189 23.3207547,1.69811321 C23.2641509,1.86792453 23.1509434,2.03773585 23.0377358,2.20754717 C22.9245283,2.37735849 22.8113208,2.54716981 22.754717,2.71698113 C22.6415094,2.88679245 22.5849057,3 22.5849057,3 L22.5849057,3.05660377 C22.4716981,3.05660377 22.4150943,3.05660377 22.3584906,3 C21.6226415,2.66037736 20.8867925,2.49056604 20.0377358,2.49056604 C19.245283,2.49056604 18.509434,2.66037736 17.8301887,2.94339623 C17.1509434,3.22641509 16.5283019,3.67924528 16.0188679,4.18867925 C15.509434,4.69811321 15.0566038,5.32075472 14.7735849,6 C14.490566,6.67924528 14.3207547,7.47169811 14.3207547,8.20754717 C14.3207547,9 14.490566,9.73584906 14.7735849,10.4150943 C15.0566038,11.0943396 15.509434,11.7169811 16.0188679,12.2264151 C16.5283019,12.7358491 17.1509434,13.1320755 17.8301887,13.4716981 C18.509434,13.754717 19.245283,13.9245283 20.0377358,13.9245283 C20.8301887,13.9245283 21.5660377,13.754717 22.245283,13.4716981 C22.9245283,13.1886792 23.5471698,12.7358491 24.0566038,12.2264151 C24.5660377,11.7169811 24.9622642,11.0943396 25.3018868,10.4150943 C25.5849057,9.73584906 25.754717,9 25.754717,8.20754717 C25.754717,7.9245283 25.6981132,7.58490566 25.6415094,7.24528302 C25.5849057,6.90566038 25.4716981,6.62264151 25.4150943,6.33962264 C25.3018868,6.05660377 25.1886792,5.77358491 25.0754717,5.49056604 C24.9622642,5.20754717 24.7924528,4.98113208 24.6792453,4.86792453 L24.6226415,4.81132075 C24.6226415,4.75471698 24.6792453,4.75471698 24.6792453,4.69811321 C24.9056604,4.52830189 25.0754717,4.30188679 25.245283,4.18867925 C25.4150943,4.0754717 25.5283019,3.90566038 25.6981132,3.79245283 C25.8113208,3.67924528 25.8679245,3.62264151 25.9245283,3.56603774 C25.9245283,3.56603774 25.9811321,3.56603774 25.9811321,3.50943396 C26.0377358,3.45283019 26.0943396,3.39622642 26.1509434,3.33962264 L26.2075472,3.33962264 C26.3773585,3.50943396 26.5471698,3.73584906 26.7735849,4.0754717 C27,4.41509434 27.1698113,4.86792453 27.3396226,5.32075472 C27.509434,5.77358491 27.6226415,6.28301887 27.7358491,6.79245283 C27.8490566,7.30188679 27.9056604,7.81132075 27.9056604,8.26415094 C27.9056604,9.33962264 27.6792453,10.3584906 27.2830189,11.3207547 C26.8867925,12.2830189 26.3207547,13.0754717 25.5849057,13.8113208 C24.9056604,14.490566 24.0566038,15.0566038 23.0943396,15.4528302 C22.0754717,15.9056604 21.0566038,16.1320755 19.9811321,16.1320755 Z" id="Shape" fill="url(#radialGradient-1)"></path>
                        <path d="M32.3773585,0.679245283 C32.3773585,0.622641509 32.4339623,0.509433962 32.490566,0.452830189 C32.5471698,0.396226415 32.6037736,0.339622642 32.7169811,0.339622642 L38.8301887,0.339622642 C39.509434,0.339622642 40.1320755,0.452830189 40.754717,0.735849057 C41.3207547,0.962264151 41.8867925,1.30188679 42.2830189,1.75471698 C42.7358491,2.20754717 43.0754717,2.71698113 43.3584906,3.28301887 C43.6415094,3.8490566 43.754717,4.47169811 43.754717,5.1509434 C43.754717,6.16981132 43.4716981,7.0754717 42.8490566,7.86792453 C42.2264151,8.66037736 41.4339623,9.28301887 40.4716981,9.67924528 C40.3584906,9.73584906 40.3584906,9.79245283 40.4150943,9.8490566 C41.2075472,11.2641509 41.7735849,12.3962264 42.2264151,13.1886792 C42.6226415,13.9811321 42.9622642,14.5471698 43.1886792,14.9433962 L43.5849057,15.6792453 C43.6415094,15.7924528 43.6415094,15.9056604 43.5849057,16.0188679 C43.5283019,16.1320755 43.4150943,16.1886792 43.3018868,16.1886792 L40.754717,16.1886792 C40.5849057,16.1886792 40.5283019,16.1320755 40.4716981,16.0188679 L40.0754717,15.2830189 C39.9622642,15.1132075 39.8490566,14.8867925 39.7358491,14.5471698 C39.5660377,14.2641509 39.3962264,13.8679245 39.1698113,13.4716981 C38.9433962,13.0188679 38.7169811,12.5660377 38.4339623,11.9433962 C38.1509434,11.3773585 37.8113208,10.6981132 37.4150943,9.90566038 C37.3584906,9.8490566 37.3584906,9.8490566 37.3018868,9.8490566 L35.2641509,9.8490566 C35.1509434,9.8490566 35.1509434,9.90566038 35.1509434,9.96226415 L35.1509434,15.7924528 C35.1509434,15.8490566 35.0943396,15.9622642 35.0377358,16.0188679 C34.9811321,16.0754717 34.8679245,16.1320755 34.8113208,16.1320755 L32.7735849,16.1320755 C32.6603774,16.1320755 32.6037736,16.0754717 32.5471698,16.0188679 C32.490566,15.9622642 32.4339623,15.9056604 32.4339623,15.7924528 L32.4339623,0.679245283 L32.3773585,0.679245283 Z M38.5471698,7.69811321 C38.8867925,7.69811321 39.1698113,7.64150943 39.4528302,7.52830189 C39.7358491,7.41509434 40.0188679,7.24528302 40.245283,7.01886792 C40.4716981,6.79245283 40.6415094,6.50943396 40.754717,6.22641509 C40.8679245,5.94339623 40.9245283,5.60377358 40.9245283,5.26415094 C40.9245283,4.9245283 40.8679245,4.64150943 40.754717,4.35849057 C40.6415094,4.0754717 40.4716981,3.8490566 40.245283,3.62264151 C40.0188679,3.39622642 39.7924528,3.22641509 39.4528302,3.11320755 C39.1698113,3 38.8301887,2.94339623 38.5471698,2.94339623 L35.2641509,2.94339623 C35.1509434,2.94339623 35.1509434,3 35.1509434,3.05660377 L35.1509434,7.58490566 C35.1509434,7.69811321 35.2075472,7.69811321 35.2641509,7.69811321 L38.5471698,7.69811321 Z" id="Shape" fill="#FFFFFF"></path>
                        <path d="M52.4150943,0.339622642 C53.490566,0.339622642 54.509434,0.566037736 55.4716981,0.962264151 C56.4339623,1.35849057 57.2830189,1.9245283 58.0188679,2.66037736 C58.754717,3.39622642 59.3207547,4.18867925 59.7169811,5.1509434 C60.1132075,6.11320755 60.3396226,7.13207547 60.3396226,8.20754717 C60.3396226,9.28301887 60.1132075,10.3584906 59.7169811,11.3207547 C59.3207547,12.2830189 58.754717,13.1320755 58.0188679,13.8679245 C57.2830189,14.6037736 56.4339623,15.1698113 55.4716981,15.5660377 C54.509434,15.9622642 53.490566,16.1886792 52.4150943,16.1886792 L47.4339623,16.1886792 C47.3773585,16.1886792 47.2641509,16.1320755 47.2075472,16.0754717 C47.1509434,16.0188679 47.0943396,15.9622642 47.0943396,15.8490566 L47.0943396,0.679245283 C47.0943396,0.622641509 47.1509434,0.509433962 47.2075472,0.452830189 C47.2641509,0.396226415 47.3207547,0.339622642 47.4339623,0.339622642 L52.4150943,0.339622642 Z M52.1320755,13.6415094 C52.9245283,13.6415094 53.6037736,13.5283019 54.2264151,13.245283 C54.8490566,12.9622642 55.4150943,12.6226415 55.8679245,12.1132075 C56.3207547,11.6603774 56.7169811,11.0943396 56.9433962,10.4150943 C57.2264151,9.73584906 57.3396226,9.05660377 57.3396226,8.26415094 C57.3396226,7.47169811 57.2264151,6.79245283 56.9433962,6.11320755 C56.6603774,5.49056604 56.3207547,4.9245283 55.8679245,4.41509434 C55.4150943,3.96226415 54.8490566,3.56603774 54.2264151,3.28301887 C53.6037736,3 52.8679245,2.88679245 52.1320755,2.88679245 L49.9811321,2.88679245 C49.8679245,2.88679245 49.8679245,2.94339623 49.8679245,3 L49.8679245,13.4716981 C49.8679245,13.5849057 49.9245283,13.5849057 49.9811321,13.5849057 L52.1320755,13.5849057 L52.1320755,13.6415094 Z" id="Shape" fill="#FFFFFF"></path>
                        <path d="M67.3584906,3 L67.3584906,6.73584906 C67.3584906,6.8490566 67.4150943,6.8490566 67.4716981,6.8490566 L72.6792453,6.8490566 C72.7358491,6.8490566 72.8490566,6.90566038 72.9056604,6.96226415 C72.9622642,7.01886792 73.0188679,7.0754717 73.0188679,7.18867925 L73.0188679,9.11320755 C73.0188679,9.22641509 72.9622642,9.28301887 72.9056604,9.33962264 C72.8490566,9.39622642 72.7924528,9.45283019 72.6792453,9.45283019 L67.4716981,9.45283019 C67.3584906,9.45283019 67.3584906,9.50943396 67.3584906,9.56603774 L67.3584906,13.5283019 C67.3584906,13.6415094 67.4150943,13.6415094 67.4716981,13.6415094 L73.8113208,13.6415094 C73.9245283,13.6415094 73.9811321,13.6981132 74.0377358,13.754717 C74.0943396,13.8113208 74.1509434,13.9245283 74.1509434,13.9811321 L74.1509434,15.8490566 C74.1509434,15.9056604 74.0943396,16.0188679 74.0377358,16.0754717 C73.9811321,16.1320755 73.9245283,16.1886792 73.8113208,16.1886792 L64.9245283,16.1886792 C64.8113208,16.1886792 64.754717,16.1320755 64.6981132,16.0754717 C64.6415094,16.0188679 64.5849057,15.9622642 64.5849057,15.8490566 L64.5849057,0.679245283 C64.5849057,0.622641509 64.6415094,0.509433962 64.6981132,0.452830189 C64.754717,0.396226415 64.8113208,0.339622642 64.9245283,0.339622642 L73.8113208,0.339622642 C73.9245283,0.339622642 73.9811321,0.396226415 74.0377358,0.452830189 C74.0943396,0.509433962 74.1509434,0.566037736 74.1509434,0.679245283 L74.1509434,2.54716981 C74.1509434,2.60377358 74.0943396,2.71698113 74.0377358,2.77358491 C73.9811321,2.83018868 73.9245283,2.88679245 73.8113208,2.88679245 L67.4716981,2.88679245 C67.4150943,2.88679245 67.3584906,2.94339623 67.3584906,3 Z" id="Shape" fill="#FFFFFF"></path>
                        <path d="M89.6037736,16.0754717 C89.5471698,16.1886792 89.4339623,16.245283 89.2641509,16.245283 L86.7735849,16.245283 C86.7169811,16.245283 86.6037736,16.245283 86.5471698,16.1886792 C86.490566,16.1320755 86.4339623,16.0754717 86.3773585,16.0188679 L83.2075472,10.8679245 C83.1509434,10.8113208 83.1509434,10.8113208 83.0943396,10.8113208 C83.0377358,10.8113208 83.0377358,10.8113208 82.9811321,10.8679245 L79.6981132,16.0754717 C79.6415094,16.1320755 79.6415094,16.1320755 79.5849057,16.1886792 C79.5283019,16.245283 79.4716981,16.245283 79.4150943,16.245283 L76.9245283,16.245283 C76.8113208,16.245283 76.6981132,16.1886792 76.6415094,16.0754717 C76.5849057,15.9622642 76.5849057,15.8490566 76.6415094,15.7924528 L81.3962264,8.20754717 C81.4528302,8.1509434 81.4528302,8.03773585 81.3962264,7.98113208 L76.8113208,0.79245283 C76.754717,0.679245283 76.754717,0.566037736 76.8113208,0.509433962 C76.8679245,0.396226415 76.9811321,0.339622642 77.0943396,0.339622642 L79.754717,0.339622642 C79.8113208,0.339622642 79.8679245,0.339622642 79.9245283,0.396226415 C79.9811321,0.452830189 79.9811321,0.452830189 80.0377358,0.509433962 L82.9811321,5.37735849 C83.0377358,5.43396226 83.0377358,5.43396226 83.0943396,5.43396226 C83.1509434,5.43396226 83.1509434,5.43396226 83.2075472,5.37735849 L86.1509434,0.622641509 C86.2075472,0.566037736 86.2075472,0.509433962 86.2641509,0.452830189 C86.3207547,0.396226415 86.3773585,0.396226415 86.490566,0.396226415 L89.1509434,0.396226415 C89.2641509,0.396226415 89.3773585,0.452830189 89.4339623,0.566037736 C89.490566,0.679245283 89.490566,0.79245283 89.4339623,0.849056604 L84.8490566,8.03773585 C84.7924528,8.09433962 84.7924528,8.20754717 84.8490566,8.26415094 L89.6037736,15.8490566 L89.6037736,15.8490566 C89.6603774,15.8490566 89.6603774,15.9622642 89.6037736,16.0754717 Z" id="Shape" fill="#FFFFFF"></path>
                        <path d="M18.5660377,6.22641509 C18.4528302,6.22641509 18.3962264,6.33962264 18.3962264,6.39622642 L18.3962264,7.47169811 C18.3962264,7.58490566 18.509434,7.64150943 18.5660377,7.64150943 L21.6226415,7.64150943 L21.6226415,6.22641509 L18.5660377,6.22641509 Z" id="Shape" fill="url(#radialGradient-2)"></path>
                        <path d="M18.5660377,8.83018868 C18.4528302,8.83018868 18.3396226,8.94339623 18.3396226,9.05660377 L18.3396226,10.1886792 C18.3396226,10.3018868 18.4528302,10.4150943 18.5660377,10.4150943 L21.6226415,10.4150943 L21.6226415,8.83018868 L18.5660377,8.83018868 L18.5660377,8.83018868 Z" id="Shape" fill="url(#radialGradient-3)"></path>
                    </g>
                </g>
            </g>
        </g>
    </g>
</svg>