<?xml version="1.0" encoding="utf-8"?>
<!-- Generator: Adobe Illustrator 22.0.0, SVG Export Plug-In . SVG Version: 6.00 Build 0)  -->
<svg version="1.1" id="Layer_1" xmlns="http://www.w3.org/2000/svg" xmlns:xlink="http://www.w3.org/1999/xlink" x="0px" y="0px"
	 viewBox="0 0 48 48" style="enable-background:new 0 0 48 48;" xml:space="preserve">
<style type="text/css">
	.st0{fill:url(#Shape_2_);}
</style>
<g>
	
		<radialGradient id="Shape_2_" cx="-442.359" cy="494.9308" r="4.1808" gradientTransform="matrix(15.7358 0 0 -15.6792 7011.6982 7757.0571)" gradientUnits="userSpaceOnUse">
		<stop  offset="1.796875e-02" style="stop-color:#F5833F"/>
		<stop  offset="1" style="stop-color:#E92C82"/>
	</radialGradient>
	<path id="Shape_1_" class="st0" d="M23.8,46.1c-3,0-5.9-0.6-8.6-1.8c-2.7-1.1-5-2.7-7-4.6c-1.9-1.9-3.5-4.3-4.6-7
		c-1.1-2.7-1.8-5.6-1.8-8.6s0.6-5.9,1.8-8.6c1.1-2.7,2.7-5.1,4.6-7c1.9-1.9,4.3-3.5,7-4.8c2.7-1.1,5.6-1.8,8.6-1.8
		c3.5,0,6.9,0.8,9.7,2.2c0,0,0.2,0,0.2,0.2c0,0,0,0,0,0.2c-0.2,0.2-0.3,0.5-0.5,1c-0.2,0.5-0.5,1-0.8,1.4c-0.3,0.5-0.6,1-0.8,1.4
		c-0.3,0.5-0.5,0.8-0.5,0.8v0.2c-0.3,0-0.5,0-0.6-0.2c-2.1-1-4.2-1.4-6.5-1.4c-2.2,0-4.3,0.5-6.2,1.3s-3.7,2.1-5.1,3.5
		s-2.7,3.2-3.5,5.1c-0.8,1.9-1.3,4.2-1.3,6.2c0,2.2,0.5,4.3,1.3,6.2c0.8,1.9,2.1,3.7,3.5,5.1s3.2,2.6,5.1,3.5c1.9,0.8,4,1.3,6.2,1.3
		c2.2,0,4.3-0.5,6.2-1.3c1.9-0.8,3.7-2.1,5.1-3.5c1.4-1.4,2.6-3.2,3.5-5.1c0.8-1.9,1.3-4,1.3-6.2c0-0.8-0.2-1.8-0.3-2.7
		s-0.5-1.8-0.6-2.6c-0.3-0.8-0.6-1.6-1-2.4c-0.3-0.8-0.8-1.4-1.1-1.8l-0.2-0.2c0-0.2,0.2-0.2,0.2-0.3c0.6-0.5,1.1-1.1,1.6-1.4
		s0.8-0.8,1.3-1.1c0.3-0.3,0.5-0.5,0.6-0.6c0,0,0.2,0,0.2-0.2c0.2-0.2,0.3-0.3,0.5-0.5h0.2c0.5,0.5,1,1.1,1.6,2.1s1.1,2.2,1.6,3.5
		s0.8,2.7,1.1,4.2s0.5,2.9,0.5,4.2c0,3-0.6,5.9-1.8,8.6c-1.1,2.7-2.7,5-4.8,7c-1.9,1.9-4.3,3.5-7,4.6C29.8,45.5,26.9,46.1,23.8,46.1
		z"/>
</g>
</svg>
